<svg width="23" height="20" viewBox="0 0 23 20" fill="none" xmlns="http://www.w3.org/2000/svg">
<path d="M12.1085 0.367851C12.3444 0.132304 12.6641 0 12.9974 0C13.3307 0 13.6504 0.132304 13.8862 0.367851L22.2717 8.75327C22.5072 8.98911 22.6395 9.3088 22.6395 9.64212C22.6395 9.97544 22.5072 10.2951 22.2717 10.531L13.8862 18.9164C13.7711 19.04 13.6322 19.1391 13.4779 19.2078C13.3237 19.2766 13.1571 19.3135 12.9882 19.3165C12.8193 19.3195 12.6516 19.2884 12.4949 19.2252C12.3383 19.1619 12.1961 19.0678 12.0766 18.9483C11.9572 18.8289 11.863 18.6866 11.7998 18.53C11.7365 18.3734 11.7054 18.2056 11.7084 18.0367C11.7114 17.8678 11.7484 17.7013 11.8171 17.547C11.8858 17.3927 11.985 17.2538 12.1085 17.1387L18.3473 10.8999H1.25781C0.92422 10.8999 0.60429 10.7674 0.368405 10.5315C0.132519 10.2956 0 9.97571 0 9.64212C0 9.30853 0.132519 8.9886 0.368405 8.75271C0.60429 8.51683 0.92422 8.38431 1.25781 8.38431H18.3473L12.1085 2.14556C11.873 1.90972 11.7407 1.59003 11.7407 1.25671C11.7407 0.923384 11.873 0.603692 12.1085 0.367851Z" fill="white"/>
</svg>
